# Exported from Wings 3D 1.2
mtllib bramka.mtl
o cylinder1
#56 vertices, 44 faces
v 1.00000000 0.16400000 0.0000000e+0
v 0.92387953 0.16400000 0.38268343
v 0.70710678 0.16400000 0.70710678
v 0.38268343 0.16400000 0.92387953
v 6.1232340e-17 0.16400000 1.00000000
v -0.38268343 0.16400000 0.92387953
v -0.70710678 0.16400000 0.70710678
v -0.92387953 0.16400000 0.38268343
v -1.00000000 0.16400000 1.2246468e-16
v -0.92387953 0.16400000 -0.38268343
v -0.70710678 0.16400000 -0.70710678
v -0.38268343 0.16400000 -0.92387953
v -1.8369702e-16 0.16400000 -1.00000000
v 0.38268343 0.16400000 -0.92387953
v 0.70710678 0.16400000 -0.70710678
v 0.92387953 0.16400000 -0.38268343
v 1.00000000 -0.16400000 0.0000000e+0
v 0.92387953 -0.16400000 0.38268343
v 0.70710678 -0.16400000 0.70710678
v 0.38268343 -0.16400000 0.92387953
v 6.1232340e-17 -0.16400000 1.00000000
v -0.38268343 -0.16400000 0.92387953
v -0.70710678 -0.16400000 0.70710678
v -0.92387953 -0.16400000 0.38268343
v -1.00000000 -0.16400000 1.2246468e-16
v -0.92387953 -0.16400000 -0.38268343
v -0.70710678 -0.16400000 -0.70710678
v -0.38268343 -0.16400000 -0.92387953
v -1.8369702e-16 -0.16400000 -1.00000000
v 0.38268343 -0.16400000 -0.92387953
v 0.70710678 -0.16400000 -0.70710678
v 0.92387953 -0.16400000 -0.38268343
v -2.67299297 0.16400000 8.6901033e-2
v -2.67299297 -0.16400000 8.6901033e-2
v -2.51657021 0.16400000 -0.41814326
v -2.51657021 -0.16400000 -0.41814326
v 2.67299297 0.16400000 8.6901033e-2
v 2.67299297 -0.16400000 8.6901033e-2
v 2.51657021 -0.16400000 -0.41814326
v 2.51657021 0.16400000 -0.41814326
v 4.11549242 0.16400000 -1.53822361
v 4.11549242 -0.16400000 -1.53822361
v 3.50190608 -0.16400000 -1.54432595
v 3.50190608 0.16400000 -1.54432595
v -4.11549242 -0.16400000 -1.53822361
v -4.11549242 0.16400000 -1.53822361
v -3.50190608 0.16400000 -1.54432595
v -3.50190608 -0.16400000 -1.54432595
v -4.13173249 -0.16400000 -4.93273435
v -4.13173249 0.16400000 -4.93273435
v -3.52019445 0.16400000 -4.93883668
v -3.52019445 -0.16400000 -4.93883668
v 4.13173249 0.16400000 -4.93273435
v 4.13173249 -0.16400000 -4.93273435
v 3.52019445 -0.16400000 -4.93883668
v 3.52019445 0.16400000 -4.93883668
vt 0.0000000e+0 0.47334362
vt 0.0000000e+0 0.94717412
vt 0.0000000e+0 0.94766099
vt 0.0000000e+0 0.97383050
vt 0.0000000e+0 1.00000000
vt 1.2957151e-3 0.94766099
vt 1.2957151e-3 0.97383050
vt 1.2957151e-3 0.20251235
vt 1.2957151e-3 0.67634284
vt 1.4591386e-3 0.97383050
vt 1.4591386e-3 1.00000000
vt 4.8791605e-2 0.47383050
vt 4.8791605e-2 0.94766099
vt 4.8791605e-2 0.94766099
vt 4.8791605e-2 0.97383050
vt 5.0250743e-2 0.20299922
vt 5.0250743e-2 0.67682972
vt 8.0074230e-2 0.97383050
vt 8.0074230e-2 1.00000000
vt 0.11638563 0.94766099
vt 0.11638563 0.97383050
vt 0.11638563 7.2851664e-2
vt 0.11638563 0.54668216
vt 0.12886583 0.11314666
vt 0.12886583 0.58697716
vt 0.20714717 0.97383050
vt 0.20714717 1.00000000
vt 0.22444239 0.97383050
vt 0.22444239 1.00000000
vt 0.24986549 7.9785069e-2
vt 0.24986549 0.55361557
vt 0.25032653 0.97383050
vt 0.25032653 1.00000000
vt 0.25593877 0.94766099
vt 0.25593877 0.97383050
vt 0.25593877 4.9252645e-2
vt 0.25593877 0.11031749
vt 0.25593877 0.52308314
vt 0.25593877 0.58414799
vt 0.27323400 0.94766099
vt 0.27323400 0.97383050
vt 0.27323400 2.3368506e-2
vt 0.27323400 0.13620163
vt 0.27323400 0.61003213
vt 0.27323400 0.49719900
vt 0.28085896 0.97383050
vt 0.28085896 1.00000000
vt 0.29911814 0.94766099
vt 0.29911814 0.97383050
vt 0.29911814 0.15349686
vt 0.29911814 6.0732768e-3
vt 0.29911814 0.62732736
vt 0.29911814 0.47990377
vt 0.31139138 0.97383050
vt 0.31139138 1.00000000
vt 0.32965056 0.94766099
vt 0.32965056 0.97383050
vt 0.32965056 0.15957014
vt 0.32965056 0.0000000e+0
vt 0.32965056 0.47383050
vt 0.32965056 0.63340064
vt 0.33727552 0.97383050
vt 0.33727552 1.00000000
vt 0.35457075 0.97383050
vt 0.35457075 1.00000000
vt 0.36018299 0.94766099
vt 0.36018299 0.97383050
vt 0.36018299 6.0732768e-3
vt 0.36018299 0.15349686
vt 0.36018299 0.47990377
vt 0.36018299 0.62732736
vt 0.38606713 0.94766099
vt 0.38606713 0.97383050
vt 0.38606713 2.3368506e-2
vt 0.38606713 0.13620163
vt 0.38606713 0.49719900
vt 0.38606713 0.61003213
vt 0.40336236 0.94766099
vt 0.40336236 0.97383050
vt 0.40336236 4.9252645e-2
vt 0.40336236 0.11031749
vt 0.40336236 0.52308314
vt 0.40336236 0.58414799
vt 0.40943563 7.9785069e-2
vt 0.40943563 0.55361557
vt 0.48164369 0.97383050
vt 0.48164369 1.00000000
vt 0.53043529 0.11314666
vt 0.53043529 0.58697716
vt 0.54291549 0.94766099
vt 0.54291549 0.97383050
vt 0.54291549 7.2851664e-2
vt 0.54291549 0.54668216
vt 0.56025878 0.97383050
vt 0.56025878 1.00000000
vt 0.56171792 0.97383050
vt 0.56171792 1.00000000
vt 0.60905038 0.20299922
vt 0.60905038 0.67682972
vt 0.61050952 0.47383050
vt 0.61050952 0.94766099
vt 0.61050952 0.94766099
vt 0.61050952 0.97383050
vt 0.65800541 0.94766099
vt 0.65800541 0.97383050
vt 0.65800541 0.20251235
vt 0.65800541 0.67634284
vt 0.65930113 0.47334362
vt 0.65930113 0.94717412
vt 0.65930113 0.94766099
vt 0.65930113 0.97383050
vn 0.0000000e+0 1.00000000 -3.1100308e-18
vn 0.36762281 0.73656659 0.56773509
vn 0.62996790 0.45418155 0.62996790
vn 0.34093617 0.45418155 0.82309273
vn 0.0000000e+0 0.45418155 0.89090915
vn -0.34093617 0.45418155 0.82309273
vn -0.62996790 0.45418155 0.62996790
vn -0.36762281 0.73656659 0.56773509
vn 0.0000000e+0 1.00000000 -3.1100308e-18
vn -0.30425229 0.75197267 -0.58478000
vn -0.62996790 0.45418155 -0.62996790
vn -0.34093617 0.45418155 -0.82309273
vn -1.1345463e-16 0.45418155 -0.89090915
vn 0.34093617 0.45418155 -0.82309273
vn 0.62996790 0.45418155 -0.62996790
vn 0.30425229 0.75197267 -0.58478000
vn 0.0000000e+0 -1.00000000 1.4230201e-18
vn 0.36762281 -0.73656659 0.56773509
vn 0.62996790 -0.45418155 0.62996790
vn 0.34093617 -0.45418155 0.82309273
vn 0.0000000e+0 -0.45418155 0.89090915
vn -0.34093617 -0.45418155 0.82309273
vn -0.62996790 -0.45418155 0.62996790
vn -0.36762281 -0.73656659 0.56773509
vn 0.0000000e+0 -1.00000000 1.4230201e-18
vn -0.30425229 -0.75197267 -0.58478000
vn -0.62996790 -0.45418155 -0.62996790
vn -0.34093617 -0.45418155 -0.82309273
vn -1.1345463e-16 -0.45418155 -0.89090915
vn 0.34093617 -0.45418155 -0.82309273
vn 0.62996790 -0.45418155 -0.62996790
vn 0.30425229 -0.75197267 -0.58478000
vn -0.25808938 0.84655010 0.46555644
vn -0.25808938 -0.84655010 0.46555644
vn 0.28580880 0.73770456 -0.61164149
vn 0.28580880 -0.73770456 -0.61164149
vn 0.25808938 0.84655010 0.46555644
vn 0.25808938 -0.84655010 0.46555644
vn -0.28580880 -0.73770456 -0.61164149
vn -0.28580880 0.73770456 -0.61164149
vn 0.63814194 0.73019489 0.24411121
vn 0.63814194 -0.73019489 0.24411121
vn -0.63943109 -0.72969982 -0.24221078
vn -0.63943109 0.72969982 -0.24221078
vn -0.63814194 -0.73019489 0.24411121
vn -0.63814194 0.73019489 0.24411121
vn 0.63943109 0.72969982 -0.24221078
vn 0.63943109 -0.72969982 -0.24221078
vn -0.58209760 -0.57635324 -0.57356719
vn -0.58209760 0.57635324 -0.57356719
vn 0.57245766 0.57823579 -0.58132228
vn 0.57245766 -0.57823579 -0.58132228
vn 0.58209760 0.57635324 -0.57356719
vn 0.58209760 -0.57635324 -0.57356719
vn -0.57245766 -0.57823579 -0.58132228
vn -0.57245766 0.57823579 -0.58132228
g cylinder1_cylinder1_auv
usemtl cylinder1_auv
s 1
f 1/84/1 16/81/16 15/75/15 14/69/14 13/58/13 12/50/12 11/43/11 10/37/10 9/30/9 8/36/8 7/42/7 6/51/6 5/59/5 4/68/4 3/74/3 2/80/2
f 1/84/1 37/92/37 40/88/40 16/81/16
f 2/80/2 37/92/37 1/84/1
f 3/73/3 19/72/19 18/78/18 2/79/2
f 4/67/4 20/66/20 19/72/19 3/73/3
f 5/57/5 21/56/21 20/66/20 4/67/4
f 6/49/6 22/48/22 21/56/21 5/57/5
f 7/41/7 23/40/23 22/48/22 6/49/6
f 8/35/8 24/34/24 23/40/23 7/41/7
f 8/35/8 33/21/33 34/20/34 24/34/24
f 9/30/9 33/22/33 8/36/8
f 10/37/10 35/24/35 33/22/33 9/30/9
f 11/63/11 27/62/27 26/64/26 10/65/10
f 12/55/12 28/54/28 27/62/27 11/63/11
f 13/47/13 29/46/29 28/54/28 12/55/12
f 14/33/14 30/32/30 29/46/29 13/47/13
f 15/29/15 31/28/31 30/32/30 14/33/14
f 16/27/16 32/26/32 31/28/31 15/29/15
f 16/27/16 40/19/40 39/18/39 32/26/32
f 17/31/17 38/23/38 18/38/18
f 18/38/18 19/45/19 20/53/20 21/60/21 22/70/22 23/76/23 24/82/24 25/85/25 26/83/26 27/77/27 28/71/28 29/61/29 30/52/30 31/44/31 32/39/32 17/31/17
f 18/78/18 38/90/38 37/91/37 2/79/2
f 24/82/24 34/93/34 25/85/25
f 25/85/25 34/93/34 36/89/36 26/83/26
f 26/64/26 36/86/36 35/87/35 10/65/10
f 32/39/32 39/25/39 38/23/38 17/31/17
f 33/21/33 46/7/46 45/6/45 34/20/34
f 34/93/34 45/107/45 48/99/48 36/89/36
f 35/24/35 47/16/47 46/8/46 33/22/33
f 36/86/36 48/94/48 47/95/47 35/87/35
f 37/92/37 41/106/41 44/98/44 40/88/40
f 38/90/38 42/104/42 41/105/41 37/91/37
f 39/25/39 43/17/43 42/9/42 38/23/38
f 40/19/40 44/11/44 43/10/43 39/18/39
f 41/106/41 53/108/53 56/100/56 44/98/44
f 42/104/42 54/110/54 53/111/53 41/105/41
f 43/17/43 55/13/55 54/2/54 42/9/42
f 44/11/44 56/5/56 55/4/55 43/10/43
f 45/107/45 49/109/49 52/101/52 48/99/48
f 46/7/46 50/4/50 49/3/49 45/6/45
f 47/16/47 51/12/51 50/1/50 46/8/46
f 48/94/48 52/96/52 51/97/51 47/95/47
f 50/4/50 51/15/51 52/14/52 49/3/49
f 54/110/54 55/102/55 56/103/56 53/111/53
